<?xml version="1.0" encoding="utf-8"?>
<svg viewBox="0 0 500 500" xmlns="http://www.w3.org/2000/svg">
  <g transform="matrix(0.943107, 0, 0, 0.947941, 7.240113, 43.698807)">
    <g>
      <path d="M 490.473 47.603 L 490.473 316.81 C 490.473 332.297 477.911 344.858 462.425 344.858 L 57.884 344.858 C 42.398 344.858 29.922 332.297 29.922 316.81 L 29.922 47.603 C 29.922 32.117 42.398 19.555 57.884 19.555 L 462.425 19.555 C 464.748 19.555 466.985 19.813 469.136 20.416 C 479.203 22.825 487.204 30.826 489.613 40.892 C 490.215 43.043 490.473 45.28 490.473 47.603 Z" style="fill: rgb(204, 204, 204);"/>
      <path d="M 490.473 54.055 L 490.473 310.443 C 490.473 318.53 487.72 326.016 482.988 331.866 C 482.127 332.984 481.181 334.017 480.149 335.049 C 479.374 335.823 478.514 336.512 477.654 337.2 C 476.707 338.06 475.675 338.749 474.556 339.437 C 473.868 339.953 473.007 340.383 472.233 340.814 C 474.298 338.146 475.933 335.135 477.137 331.866 C 478.513 328.167 479.288 324.124 479.288 319.907 L 479.288 63.52 C 479.288 44.506 463.801 29.106 444.787 29.106 L 53.152 29.106 C 47.302 29.106 41.881 30.482 37.063 33.063 C 43.344 24.89 53.238 19.555 64.337 19.555 L 456.059 19.555 C 461.995 19.555 467.587 21.104 472.492 23.771 C 478.342 26.955 483.16 31.773 486.344 37.624 C 488.924 42.527 490.473 48.12 490.473 54.055 Z" style="fill: rgb(204, 204, 204);"/>
      <polygon points="183.589 315.296 333.73 315.296 336.794 433.734" style="fill: rgb(204, 204, 204);"/>
      <path style="opacity: 0.06; fill: rgb(204, 204, 204);" d="M 482.999 331.859 C 476.687 339.794 466.944 344.881 456.037 344.881 L 334.491 344.881 L 336.789 433.734 L 221.862 344.881 L 64.347 344.881 C 53.439 344.881 43.696 339.795 37.385 331.859 L 216.715 331.859 L 330.661 419.946 L 328.394 331.859 L 482.999 331.859 Z"/>
      <g transform="matrix(1, 0, 0, 1, -21.526972, 19.554831)">
        <rect x="143.843" y="63.866" width="269.624" height="29.107" style="fill: rgb(251, 251, 251);"/>
        <rect x="143.843" y="144.031" width="297.199" height="29.107" style="fill: rgb(251, 251, 251);"/>
        <rect x="143.843" y="223.693" width="162.004" height="29.107" style="fill: rgb(251, 251, 251);"/>
      </g>
    </g>
  </g>
</svg>