<?xml version="1.0" encoding="utf-8"?>
<svg viewBox="0 0 500 500" xmlns="http://www.w3.org/2000/svg">
  <style type="text/css">
	.st0{fill:#4B4B4B;}
</style>
  <g transform="matrix(0.919703, 0, 0, 0.9569, 14.555107, 5.033103)">
    <path class="st0" d="M157.561,226.54c16.725,37.766,54.475,64.153,98.432,64.153c43.969,0,81.711-26.387,98.432-64.153&#10;&#9;&#9;c21.525-3.962,37.943-24.586,37.943-49.5c0-17.208-7.834-32.384-19.766-41.44l3.012-15.974C375.614,53.558,322.05,0,255.993,0&#10;&#9;&#9;c-66.07,0-119.636,53.558-119.636,119.626l3.019,15.988c-11.926,9.058-19.758,24.226-19.758,41.426&#10;&#9;&#9;C119.618,201.949,136.04,222.57,157.561,226.54z" style="fill: rgb(204, 204, 204);"/>
    <path class="st0" d="M332.872,302.7c-21.912,15.028-48.365,23.881-76.879,23.881c-29.412,0-56.594-9.469-78.898-25.366&#10;&#9;&#9;c-30.953,24.448-91.486,64.276-91.486,157.683c0,19.346,48.674,53.103,170.385,53.103c121.711,0,170.399-33.757,170.399-53.103&#10;&#9;&#9;C426.392,381.569,363.11,332.588,332.872,302.7z" style="fill: rgb(204, 204, 204);"/>
  </g>
</svg>