<?xml version="1.0" encoding="utf-8"?>
<svg viewBox="0 0 500 500" xmlns="http://www.w3.org/2000/svg">
  <g transform="matrix(0.914698, 0, 0, 0.960347, 56.402336, 3.709772)">
    <path d="M424.269,212.061c0,58.586-23.759,111.638-62.128,150.007L213.684,510.451L212.134,512&#10;&#9;&#9;L62.275,362.141c-7.231-7.157-13.872-14.905-19.996-23.095C15.716,303.703,0,259.726,0,212.061&#10;&#9;&#9;c0-51.06,18.077-97.914,48.182-134.512c8.78-10.773,18.668-20.586,29.366-29.367C114.147,18.077,161.074,0,212.134,0&#10;&#9;&#9;c40.655,0,78.582,11.437,110.826,31.211c28.555,17.487,52.609,41.541,70.097,70.097&#10;&#9;&#9;C412.831,133.552,424.269,171.478,424.269,212.061z" style="fill: rgb(204, 204, 204);"/>
    <path d="M339.392,212.081c0,70.284-56.968,127.258-127.259,127.258&#10;&#9;&#9;c-70.277,0-127.258-56.974-127.258-127.258S141.856,84.822,212.133,84.822C282.424,84.822,339.392,141.797,339.392,212.081z" style="fill: rgb(253, 253, 253);"/>
  </g>
</svg>