<?xml version="1.0" encoding="utf-8"?>
<svg id="_x35_" style="enable-background:new 0 0 512 512;" x="0px" y="0px" viewBox="0 -3 321 515" xmlns="http://www.w3.org/2000/svg">
  <g>
    <path style="fill: rgb(204, 204, 204); stroke: rgb(204, 204, 204);" d="M185.517,291.817v91.472h-53.15v-91.472c1.083,0.271,2.167,0.542,3.25,0.813&#10;&#9;&#9;c0.474,0.135,0.948,0.27,1.422,0.338c0.609,0.135,1.219,0.271,1.76,0.406c0.812,0.203,1.557,0.339,2.37,0.475&#10;&#9;&#9;c0.271,0.068,0.609,0.068,0.948,0.135c0.813,0.135,1.625,0.339,2.438,0.406h0.271c0.609,0.135,1.286,0.203,1.828,0.271&#10;&#9;&#9;c0.271,0,0.474,0.068,0.677,0.068c0.677,0.135,1.422,0.202,2.167,0.202c0.542,0.135,1.083,0.135,1.693,0.204&#10;&#9;&#9;c0.135,0,0.339,0.067,0.542,0.067c0.677,0,1.286,0.068,1.964,0.068c0.339,0.068,0.745,0.068,1.151,0.068h0.068&#10;&#9;&#9;c1.286,0.068,2.641,0.135,3.995,0.135h0.068c0.745,0,1.422,0,2.099-0.068h1.219c0.406,0,0.813,0,1.219-0.068h0.271&#10;&#9;&#9;c1.219-0.068,2.438-0.135,3.589-0.271c0.609-0.068,1.219-0.135,1.828-0.135c0.609-0.068,1.151-0.202,1.693-0.271&#10;&#9;&#9;c0.339,0,0.677,0,1.016-0.068c0.542-0.068,1.219-0.203,1.828-0.27c0.135,0,0.339,0,0.474-0.068&#10;&#9;&#9;c0.338-0.068,0.812-0.135,1.151-0.203h0.339c0,0,0-0.068,0.068-0.068c0.068,0,0.068,0,0.135,0c0.406-0.067,0.88-0.135,1.286-0.271&#10;&#9;&#9;c0.135,0,0.203-0.068,0.271-0.068c0.474,0,1.016-0.135,1.422-0.271c0.135,0,0.271,0,0.406-0.068c0.068,0,0.203-0.068,0.271-0.068&#10;&#9;&#9;c0.474-0.068,0.88-0.135,1.286-0.271c0.542-0.068,1.016-0.203,1.49-0.338c0.339-0.068,0.745-0.136,1.083-0.271&#10;&#9;&#9;c0.203-0.068,0.406-0.068,0.542-0.135C184.501,292.088,185.043,291.952,185.517,291.817z"/>
    <path style="fill: rgb(204, 204, 204); stroke: rgb(204, 204, 204);" d="M185.517,337.519v91.472h-53.15v-91.472c8.531,2.37,17.401,3.656,26.609,3.656&#10;&#9;&#9;C168.184,341.175,177.121,339.889,185.517,337.519z"/>
    <line style="fill: none; stroke: rgb(186, 218, 85);" x1="161.11" y1="335.673" x2="159.229" y2="337.554"/>
    <path style="fill: rgb(204, 204, 204); stroke: rgb(204, 204, 204);" d="M159.225,511.972L159.225,511.972c-20.952,0-37.936-16.985-37.936-37.937V366.935h75.88v107.094&#10;&#9;&#9;C197.169,494.984,180.181,511.972,159.225,511.972z"/>
    <rect x="119.164" y="363.925" style="fill: rgb(204, 204, 204); stroke: rgb(204, 204, 204);" width="41.911" height="27.827"/>
    <rect x="161.11" y="363.94" style="fill: rgb(204, 204, 204); stroke: rgb(204, 204, 204);" width="37.69" height="27.865"/>
    <g>
      <path d="M67.504,158.976c0,18.959,5.755,36.562,15.64,51.119c16.453,24.374,44.28,40.353,75.832,40.353&#10;&#9;&#9;&#9;v67.504c-9.073,0-17.942-0.745-26.609-2.234c-39.27-6.635-73.597-27.624-97.43-57.415C13.067,231.084,0,196.554,0,158.976&#10;&#9;&#9;&#9;C0,71.16,71.16,0,158.976,0v67.505C108.466,67.505,67.504,108.466,67.504,158.976z" style="fill: rgb(204, 204, 204); stroke: rgb(204, 204, 204);"/>
      <path d="M317.926,158.975c0-87.785-71.164-158.95-158.95-158.95c0,0-0.009,0.001-0.014,0.001V67.49&#10;&#9;&#9;&#9;c0.005,0,0.009,0,0.009,0c50.531,0,91.49,40.959,91.49,91.485c0,50.526-40.959,91.486-91.485,91.486c0,0-0.009,0-0.014,0v67.464&#10;&#9;&#9;&#9;c0.005,0,0.009,0.001,0.009,0.001C246.761,317.925,317.926,246.76,317.926,158.975z" style="fill: rgb(204, 204, 204); stroke: rgb(204, 204, 204);"/>
    </g>
    <g transform="matrix(1, 0, 0, 1, 54.833988, 50.45517)"/>
  </g>
</svg>